<?xml version="1.0" standalone="no"?>
<!DOCTYPE svg PUBLIC "-//W3C//DTD SVG 20010904//EN"
 "http://www.w3.org/TR/2001/REC-SVG-20010904/DTD/svg10.dtd">
<svg version="1.0" xmlns="http://www.w3.org/2000/svg"
 width="676.000000pt" height="676.000000pt" viewBox="0 0 676.000000 676.000000"
 preserveAspectRatio="xMidYMid meet">
<metadata>
Created by potrace 1.11, written by Peter Selinger 2001-2013
</metadata>
<g transform="translate(0.000000,676.000000) scale(0.100000,-0.100000)"
fill="#000000" stroke="none">
<path d="M429 6261 c7 -12 96 -167 198 -344 102 -177 195 -338 205 -357 11
-19 29 -50 40 -67 23 -38 23 -38 -27 -17 -20 8 -34 11 -31 6 3 -5 23 -14 44
-21 38 -13 46 -24 153 -210 62 -108 148 -256 191 -330 43 -73 71 -128 63 -121
-26 21 -18 -8 10 -36 14 -14 25 -28 25 -31 0 -4 9 -16 19 -27 17 -18 63 -94
143 -236 26 -45 324 -562 488 -845 70 -121 139 -240 152 -265 14 -25 124 -214
243 -420 120 -206 229 -395 243 -420 13 -25 39 -70 57 -100 18 -30 101 -172
183 -315 82 -143 225 -390 317 -550 92 -159 179 -310 193 -335 18 -33 27 -64
30 -117 3 -40 9 -70 13 -67 5 3 9 -4 9 -15 0 -11 4 -22 9 -25 5 -3 6 -25 4
-48 -6 -50 3 -48 12 2 17 104 16 98 4 70 l-11 -25 -9 29 c-18 64 -13 119 16
173 34 62 46 68 35 15 -14 -58 -23 -138 -16 -131 4 4 9 24 12 46 11 96 35 178
70 240 36 66 287 501 364 633 21 36 103 178 182 315 80 138 245 424 369 637
123 214 229 396 234 405 6 10 41 72 78 138 38 66 85 147 104 180 19 33 49 85
65 115 17 30 39 67 49 82 11 14 19 28 19 31 0 2 37 67 81 143 45 77 91 157
103 179 12 22 58 101 101 175 43 74 112 194 153 265 121 209 163 279 184 302
11 12 17 26 14 32 -4 5 -1 13 5 17 8 4 9 3 5 -4 -4 -7 -4 -12 1 -12 4 1 40 39
78 87 39 47 77 94 85 103 30 36 47 56 114 140 38 47 80 97 95 112 14 15 31 33
36 40 6 7 27 36 49 63 57 75 -43 -36 -146 -160 -50 -61 -55 -67 -84 -100 -14
-16 -47 -56 -73 -88 -49 -62 -157 -179 -148 -162 2 6 37 66 77 135 40 69 80
139 90 155 9 17 41 72 70 123 29 50 58 92 66 92 7 0 16 4 19 10 4 6 -1 7 -12
3 -14 -6 -13 1 9 38 42 72 56 96 217 376 85 147 161 278 169 291 l15 24 -34
-20 c-19 -10 -94 -54 -166 -96 -73 -42 -190 -109 -260 -149 -178 -103 -1619
-934 -1668 -963 l-41 -23 0 102 c-2 161 -40 293 -122 422 -54 85 -98 139 -89
110 60 -191 59 -186 54 -300 -7 -177 -62 -307 -183 -430 -57 -58 -153 -125
-200 -139 -19 -6 -23 -2 -28 29 -6 32 -4 39 21 58 73 55 131 134 147 200 10
42 -2 32 -14 -11 -5 -22 -23 -57 -39 -79 -31 -43 -118 -119 -127 -111 -3 3
-13 41 -23 83 l-19 78 52 51 c50 48 50 49 5 9 -27 -24 -52 -43 -57 -43 -4 0
-14 28 -22 63 -7 34 -14 67 -16 72 -8 31 -85 333 -89 350 -2 11 -15 62 -28
113 l-23 93 -47 -188 c-26 -103 -50 -197 -52 -208 -2 -11 -16 -65 -30 -120
-30 -114 -33 -125 -34 -142 -2 -23 -27 -13 -62 25 -61 64 -87 123 -94 205 -3
41 7 113 21 152 5 13 -1 10 -17 -10 -23 -27 -25 -37 -22 -105 6 -117 42 -199
114 -263 l48 -42 -21 -83 c-11 -45 -24 -82 -28 -82 -8 0 -90 86 -90 95 0 3
-11 22 -24 43 -57 87 -66 240 -19 332 8 17 13 36 10 43 -3 6 -15 -10 -28 -38
-19 -41 -23 -67 -23 -150 -1 -94 1 -105 33 -170 20 -41 56 -93 89 -127 52 -53
54 -58 44 -86 -6 -17 -7 -33 -4 -37 16 -17 -48 10 -103 44 -255 155 -371 481
-270 759 22 60 22 62 3 46 -32 -30 -110 -162 -134 -230 -38 -104 -51 -176 -50
-283 1 -56 0 -101 -2 -101 -1 0 -163 93 -360 206 -334 194 -1615 933 -1692
977 -130 75 -123 72 -111 48z"/>
<path d="M6118 5613 c7 -3 16 -2 19 1 4 3 -2 6 -13 5 -11 0 -14 -3 -6 -6z"/>
<path d="M6070 5600 c-9 -6 -10 -10 -3 -10 6 0 15 5 18 10 8 12 4 12 -15 0z"/>
<path d="M5984 5564 c-19 -15 -19 -15 1 -6 11 5 27 12 35 15 13 5 13 6 -1 6
-8 1 -24 -6 -35 -15z"/>
<path d="M630 5550 c8 -5 20 -10 25 -10 6 0 3 5 -5 10 -8 5 -19 10 -25 10 -5
0 -3 -5 5 -10z"/>
<path d="M698 5523 c7 -3 16 -2 19 1 4 3 -2 6 -13 5 -11 0 -14 -3 -6 -6z"/>
<path d="M730 5514 c0 -7 52 -25 57 -20 2 2 -10 8 -26 14 -17 6 -31 9 -31 6z"/>
<path d="M670 5503 c0 -4 11 -18 24 -32 13 -15 79 -93 146 -176 67 -82 127
-152 133 -154 12 -4 -33 54 -77 103 -15 15 -56 65 -92 110 -76 94 -134 159
-134 149z"/>
<path d="M3791 5134 c0 -11 3 -14 6 -6 3 7 2 16 -1 19 -3 4 -6 -2 -5 -13z"/>
<path d="M1012 5089 c18 -23 50 -63 70 -88 21 -25 48 -61 60 -78 13 -18 29
-35 36 -38 18 -7 -33 63 -113 155 -36 41 -65 78 -65 83 0 4 -5 7 -11 7 -6 0 4
-19 23 -41z"/>
<path d="M1196 4871 c-6 -9 44 -64 52 -57 2 3 -7 19 -21 36 -14 16 -28 26 -31
21z"/>
<path d="M2095 3309 c-4 -6 -5 -12 -2 -15 2 -3 7 2 10 11 7 17 1 20 -8 4z"/>
<path d="M3420 1060 c0 -5 5 -10 10 -10 6 0 10 5 10 10 0 6 -4 10 -10 10 -5 0
-10 -4 -10 -10z"/>
<path d="M3372 903 c1 -67 5 -120 9 -118 3 3 5 20 4 40 -1 19 3 35 9 35 8 0 8
3 0 8 -5 4 -10 38 -11 75 0 37 -4 71 -7 75 -4 3 -6 -48 -4 -115z"/>
<path d="M3129 948 c-8 -7 -21 -22 -29 -33 -9 -13 -4 -11 15 6 54 49 103 7
181 -156 31 -63 60 -115 66 -115 5 0 7 -3 5 -7 -3 -5 -1 -17 4 -28 6 -16 8
-13 9 15 4 63 0 133 -6 139 -3 3 -5 -7 -4 -24 6 -89 1 -93 -31 -21 -66 148
-102 199 -156 222 -39 17 -36 17 -54 2z"/>
<path d="M3549 913 c-34 -21 -101 -108 -133 -170 -35 -69 -33 -78 4 -20 17 26
30 51 30 55 0 4 26 35 58 70 59 63 82 73 123 52 10 -6 19 -8 19 -6 0 7 -38 27
-59 31 -9 2 -28 -4 -42 -12z"/>
</g>
</svg>
